<?xml version="1.0"?>
<svg xmlns="http://www.w3.org/2000/svg" xmlns:xlink="http://www.w3.org/1999/xlink" xmlns:svgjs="http://svgjs.com/svgjs" version="1.1" width="512" height="512" x="0" y="0" viewBox="0 0 503.3 503.3" style="enable-background:new 0 0 512 512" xml:space="preserve" class=""><g>
<g xmlns="http://www.w3.org/2000/svg">
	<path style="" d="M52.2,177.1l4.3,40C56.5,217.1,9.2,200.5,52.2,177.1z" fill="#edb288" data-original="#edb288" class=""/>
	<path style="" d="M264,217.1c0,0,47.3-16.7,4.3-40L264,217.1" fill="#edb288" data-original="#edb288" class=""/>
</g>
<g xmlns="http://www.w3.org/2000/svg">
	<path style="" d="M339.2,87.3c2.8,11.6,0.7,23.9-5.7,34c-13.3,22.3-42.1,29.7-64.4,16.4c-0.1-0.1-0.2-0.1-0.3-0.2   l-4.2,1.6h-0.5v-4.2h4.7l69.3-47.6H339.2z" fill="#4b5d63" data-original="#4b5d63"/>
	<path style="" d="M338.1,87.3l-69.5,47.5h-4.7v-15.2c0.2-5.4-0.2-10.8-1-16.2h1.6l54.3-41.3l1.6-3.7   c9.8,6.7,16.6,17,18.8,28.7h-1.1V87.3z" fill="#4b5d63" data-original="#4b5d63"/>
	<path style="" d="M318.8,62.2l-54.3,41.3h-1.6c-1.6-10.7-5-21.1-9.9-30.8c13.5-22.2,42.4-29.4,64.8-16.2l2.6,2.1   L318.8,62.2z" fill="#4b5d63" data-original="#4b5d63"/>
	<path style="" d="M183,18.3v3.1C143.3,65.9,97.3,66.9,74.3,63.3c3.8-6.3,8.3-12.1,13.6-17.2   C112.7,21.1,148.6,10.6,183,18.3z" fill="#4b5d63" data-original="#4b5d63"/>
	<path style="" d="M216.4,31.9v1C158.9,130.1,59.7,99.8,59.7,99.8c2.2-13.1,7.2-25.5,14.6-36.5   c23,3.7,69,2.6,108.7-41.8v-3.2C194.8,20.9,206.1,25.5,216.4,31.9z" fill="#4b5d63" data-original="#4b5d63"/>
	<path style="" d="M264,134.8v4.2c-21.2-11.2-37-30.4-43.9-53.3c-47,82-157.3,54.9-163,53.3v-19.3   c-0.1-6.7,0.6-13.3,2.1-19.9c0,0,99.3,30.3,156.7-66.9v-1c25,16.2,41.9,42.2,46.5,71.6c0.9,5.4,1.2,10.8,1,16.2L264,134.8z" fill="#4b5d63" data-original="#4b5d63"/>
</g>
<path xmlns="http://www.w3.org/2000/svg" style="" d="M264,139v51.2c0.1,27.5-10.8,53.8-30.3,73.1c-10.2,10.7-22.7,18.9-36.6,24  c-11.7,4.2-24.1,6.4-36.6,6.3c-11-0.1-21.9-1.8-32.4-5.2c-42.3-14.1-70.9-53.6-71.1-98.2V139c5.7,1.6,116,28.7,163-53.3  C227,108.7,242.8,127.9,264,139z" fill="#f7caa5" data-original="#f7caa5" class=""/>
<path xmlns="http://www.w3.org/2000/svg" style="" d="M198.1,314L198.1,314l-35.5,35.5l-1-1l-34-34.5l0,0v-25.6c10.5,3.4,21.4,5.1,32.4,5.2  c12.5,0.1,24.8-2,36.6-6.3l1,2.1L198.1,314z" fill="#edb288" data-original="#edb288" class=""/>
<g xmlns="http://www.w3.org/2000/svg">
	<path style="" d="M91.6,314.6h36l34,34.5l-1,1V465H5.9v-79.4c0-39.2,31.8-71.1,71.1-71.1l0,0h14.6V314.6z" fill="#d4e1f4" data-original="#d4e1f4" class=""/>
	<path style="" d="M198.1,314.6h51.8c9.7,0.1,19.2,3.2,27.2,8.9l4.7,3.1l4.7,2.6c-21.4,47-7.3,102.6,34,133.7l-1.6,2.1   H160.5V350.1l1-1l1,1L198.1,314.6z M229,361.6c-13.4,0-24.3,10.7-24.6,24c0.2,6.6,2.8,12.9,7.3,17.8c4.7,4.3,10.8,6.8,17.2,6.8   c6.4,0.1,12.6-2.4,17.2-6.8c4.7-4.7,7.3-11.1,7.3-17.8c0-13.3-10.8-24-24-24C229.3,361.6,229.1,361.6,229,361.6z" fill="#d4e1f4" data-original="#d4e1f4" class=""/>
</g>
<path xmlns="http://www.w3.org/2000/svg" style="" d="M246.2,368.4c4.6,4.6,7.2,10.8,7.3,17.2c0,6.7-2.6,13-7.3,17.8c-4.6,4.4-10.8,6.9-17.2,6.8  c-6.4,0-12.5-2.5-17.2-6.8c-4.5-4.8-7.1-11.1-7.3-17.8c0.1-13.6,11.2-24.4,24.8-24.3C235.6,361.4,241.7,363.9,246.2,368.4z" fill="#30ae69" data-original="#00efd1" class=""/>
<g xmlns="http://www.w3.org/2000/svg">
	<path style="" d="M116.6,214.8c-6.8-0.1-13.3-2.7-18.3-7.3c-4.6-5-7.2-11.5-7.3-18.3V185c0-4.3,3.5-7.8,7.8-7.8   s7.8,3.5,7.8,7.8v4.2c0,2.5,0.9,4.9,2.6,6.8c3.7,4,10,4.3,14,0.6c2.1-1.9,3.2-4.6,3.2-7.4V185c-0.3-4,2.7-7.5,6.8-7.8   c0.4,0,0.7,0,1.1,0c4.3,0,7.8,3.5,7.8,7.8v4.2C142.2,203.3,130.8,214.8,116.6,214.8L116.6,214.8z" fill="#30ae69" data-original="#083863" class=""/>
	<path style="" d="M204.9,214.8c-13.8,0.3-25.3-10.7-25.6-24.5c0-0.4,0-0.7,0-1.1V185c0-4.3,3.5-7.8,7.8-7.8   c4.3,0,7.8,3.5,7.8,7.8v4.2c0.5,5.3,4.7,9.4,9.9,9.9c5.4-0.3,9.7-4.6,9.9-9.9V185c-0.3-4,2.7-7.5,6.8-7.8c0.4,0,0.7,0,1.1,0   c4.3,0,7.8,3.5,7.8,7.8v4.2C230.5,203.3,219.1,214.8,204.9,214.8z" fill="#30ae69" data-original="#083863" class=""/>
	<path style="" d="M503.3,376.2c0-65.2-52.9-118.1-118.1-118.1c-44.4,0-83,24.5-103.2,60.6l-1-0.5   c-9.3-6.2-20.2-9.4-31.3-9.4h-46v-15.7c13.1-4.8,25-12.7,34.5-23c12.6-12.6,22.1-28,27.7-44.9h1c15.9,0,28.7-12.9,28.7-28.7   c-0.2-7.4-3.2-14.5-8.4-19.9c-4.4-4-9.8-6.7-15.7-7.8v-19.9c6.8,2.8,14.1,4.3,21.4,4.2c19.2-0.1,37-10.2,47-26.6   c7.4-11.8,9.8-26.1,6.8-39.7c-3.1-13.7-11-25.9-22.5-34c-0.8-0.5-2.3-1.6-3.1-2.1c-21.2-13.4-49.4-9.1-67.2,9   c-8.8-13.1-20.2-24.3-33.4-32.9c-11-7.2-23.2-12.3-36-15.2c-7.9-1.7-16-2.5-24-2.6c-29.6,0.1-58,12-78.9,32.9   c-5.5,5.6-10.4,11.7-14.7,18.3C58.8,72,53.1,85.3,50.2,99.4c-1.8,7-2.9,14.2-3.1,21.4l0.5,48.1c-5.5,1.2-10.6,3.9-14.6,7.8   c-11,11.9-10.2,30.4,1.6,41.3c5.4,5,12.4,7.7,19.8,7.8h1c10.3,31.4,34,56.7,64.8,69v14.1H76.8C34.7,308.6,0.3,342.5,0,384.6   c0,0.7,0,1.4,0,2.1v79.4c0,4.2,1.6,9.9,5.7,9.9h312.9l1.6-1.2c14.3,9.4,30.7,15.8,48.4,18.3c0.1,0,0.2,0,0.2,0   c0.8,0.1,1.5,0.2,2.3,0.3c4.9,0.6,9.9,0.9,14.8,0.9c0.5,0,1-0.1,1.5-0.1C451.8,492.9,503.3,440.6,503.3,376.2z M40.4,197.1   c-0.1-3.3,1.1-6.7,3.5-9c1-1.6,3.1-2.6,3.1-3.1v6.3c0.4,6.2,1.2,12.3,2.6,18.3C44.2,207.9,40.7,202.9,40.4,197.1z M228.9,370.5   c8.9-0.3,16.4,6.7,16.7,15.7c0,0.4,0,0.7,0,1.1c0,4.3-1.7,8.4-4.7,11.5c-6.6,6.2-16.9,6.2-23.5,0c-3-3.1-4.7-7.2-4.7-11.5   c-0.3-8.9,6.7-16.4,15.7-16.7C228.5,370.5,228.7,370.5,228.9,370.5z M276.4,188.2c2.3,2.4,3.7,5.6,3.7,8.9   c-0.2,5.9-4.2,11-9.9,12.5c1-6,1.6-12.2,1.6-18.3V185C271.7,185.6,274.8,186.6,276.4,188.2z M326.6,118.7   c-9.3,15-27.4,22-44.4,17.2l50.2-34C331.7,107.9,329.7,113.6,326.6,118.7z M321.9,71.1c3.7,3.8,6.4,8.5,7.8,13.6l-58,39.2v-3.1   c0.1-3.8-0.1-7.7-0.5-11.5L321.9,71.1z M308.3,61.7L268.1,92c-1.5-6.1-3.6-12-6.3-17.8C272.7,60.1,291.7,55,308.3,61.7z M93,52.3   c17.8-18,42.1-28,67.4-27.7h8.4c-21.3,21.3-50.3,33-80.5,32.4L93,52.3z M77.9,72.7l12.5,1c26.6,0,63.7-8.4,96.7-44.9   c6.4,1.7,12.5,4.1,18.3,7.3c-28.4,46.8-83.3,70.5-136.9,59C70.6,87.3,73.8,79.8,77.9,72.7z M62.7,120.8c0.3-3.5,0.8-7,1.6-10.4   c9.8,1.9,19.8,2.8,29.8,2.6c35,0,87.2-11,124.3-68.4c11.2,8.6,20.5,19.5,27.2,31.9c0,0.5,0.5,1,0.5,1.6c4.5,8.8,7.5,18.4,8.9,28.2   c0.6,4.9,1,9.7,1,14.6v5.2c-12.9-10.8-22.7-24.9-28.2-40.8c-0.9-3.1-3.6-5.4-6.8-5.7c-3.4-0.5-6.8,0.9-8.9,3.7   C172.9,151.2,88.8,138.7,62.7,134L62.7,120.8L62.7,120.8z M62.7,191.3V150c13.6,2.3,27.4,3.5,41.3,3.7c35.5,0,83.1-9.4,113.9-49.6   c8.2,17.1,21.5,31.1,38.1,40.2v47c0.1,25.3-9.8,49.5-27.7,67.4c-9.8,9.8-21.6,17.4-34.5,22.5c-20.9,7.4-43.7,7.8-64.8,1   C89.8,269.2,63.1,232.7,62.7,191.3z M151.5,460.4H15.7v-73.7c-0.9-33.5,25.6-61.3,59-62.2c0.7,0,1.4,0,2.1,0h6.8v31.9   c-7.4,1.7-14.3,5.3-19.9,10.4c-7.3,7.6-11.4,17.7-11.5,28.2v44.4c0,4.2,3.7,5.2,7.8,5.2h12.5c4.3,0,7.8-3.5,7.8-7.8   s-3.5-7.8-7.8-7.8h-4.6v-34c0-6.2,2.4-12.2,6.8-16.7c4.3-4.7,10.4-7.4,16.7-7.3c13.1,0.3,23.5,11,23.5,24v34h-7.3   c-4.3,0-7.8,3.5-7.8,7.8s3.5,7.8,7.8,7.8h15.7c4.7,0,7.3-1,7.3-5.2V395c0.3-18.8-12.9-35.1-31.3-38.7v-31.9h25.1l27.2,27.7v108.3   H151.5z M135.9,312.5v-13.1c7.8,2.3,15.9,3.3,24,3.1c9.5,0.4,19.1-0.8,28.2-3.7v13.6L162,340.1L135.9,312.5z M167.2,460.4V356.9   l34-32.4h18.3v31.3c-13.4,4.8-22.7,17.1-23.5,31.3c0.6,17.8,15.1,31.9,32.9,31.9c8.6,0,16.9-3.3,23-9.4c6.1-5.8,9.5-14,9.4-22.5   c-0.2-8.8-3.9-17.1-10.4-23c-4.4-4.2-9.8-7.1-15.7-8.4v-31.3h14.6c8-0.1,15.8,2.3,22.5,6.8l3,1.9c-5.2,13.3-8.1,27.8-8.1,43   c0,31.5,12.4,60.2,32.5,81.4c0.7,0.9,1.5,1.9,2.3,2.8H167.2V460.4z" fill="#30ae69" data-original="#083863" class=""/>
</g>
<path xmlns="http://www.w3.org/2000/svg" style="" d="M385.7,272.5c57.2,0.3,103.4,46.9,103.2,104.1S442,480,384.8,479.8c-57.2-0.3-103.4-46.9-103.2-104.1  c0.1-14.7,3.3-29.3,9.4-42.7c1.8-4.1,4-8.1,6.4-11.9C316.6,290.8,349.9,272.5,385.7,272.5z M445.2,356.8c0-9.2-3.7-18-10.4-24.3  c-13.2-13.6-34.8-13.9-48.4-0.7c-0.2,0.2-0.5,0.5-0.7,0.7c-13.4-13.7-35.4-13.9-49.1-0.5c-0.2,0.2-0.3,0.3-0.5,0.5  c-6.4,6.5-9.9,15.2-9.9,24.3c0.1,9.2,3.6,18.1,9.9,24.8l49.6,49.1l49.1-49.1C441.5,375.1,445.3,366.2,445.2,356.8z" fill="#30ae69" data-original="#00acea" class=""/>
<path xmlns="http://www.w3.org/2000/svg" style="" d="M437,329.9c7,6.6,11,15.9,11,25.6c0,9.8-4,19.2-11,26.1l-51.7,51.7l-52.2-51.7  c-6.6-7.1-10.4-16.4-10.4-26.1c0-9.6,3.8-18.8,10.4-25.6c14.1-14.4,37.3-14.7,51.7-0.5c0.2,0.2,0.4,0.4,0.5,0.5  c13.9-14.3,36.7-14.6,51-0.7C436.5,329.4,436.7,329.7,437,329.9z" fill="#30ae69" data-original="#083863" class=""/>
<g xmlns="http://www.w3.org/2000/svg">
</g>
<g xmlns="http://www.w3.org/2000/svg">
</g>
<g xmlns="http://www.w3.org/2000/svg">
</g>
<g xmlns="http://www.w3.org/2000/svg">
</g>
<g xmlns="http://www.w3.org/2000/svg">
</g>
<g xmlns="http://www.w3.org/2000/svg">
</g>
<g xmlns="http://www.w3.org/2000/svg">
</g>
<g xmlns="http://www.w3.org/2000/svg">
</g>
<g xmlns="http://www.w3.org/2000/svg">
</g>
<g xmlns="http://www.w3.org/2000/svg">
</g>
<g xmlns="http://www.w3.org/2000/svg">
</g>
<g xmlns="http://www.w3.org/2000/svg">
</g>
<g xmlns="http://www.w3.org/2000/svg">
</g>
<g xmlns="http://www.w3.org/2000/svg">
</g>
<g xmlns="http://www.w3.org/2000/svg">
</g>
</g></svg>
